<svg width="12" height="19" viewBox="0 0 12 19" fill="none" xmlns="http://www.w3.org/2000/svg">
<path d="M1.21875 9.53906L2.14453 0.9375H11.3086V3.39844H4.51172L4.04297 7.47656C4.83203 7.02344 5.72266 6.79688 6.71484 6.79688C8.33984 6.79688 9.60156 7.31641 10.5 8.35547C11.4062 9.39453 11.8594 10.793 11.8594 12.5508C11.8594 14.2852 11.3594 15.668 10.3594 16.6992C9.35938 17.7227 7.98828 18.2344 6.24609 18.2344C4.68359 18.2344 3.38672 17.793 2.35547 16.9102C1.33203 16.0195 0.777344 14.8477 0.691406 13.3945H3.44531C3.55469 14.2227 3.85156 14.8594 4.33594 15.3047C4.82031 15.7422 5.45312 15.9609 6.23438 15.9609C7.10938 15.9609 7.78906 15.6484 8.27344 15.0234C8.76562 14.3984 9.01172 13.5469 9.01172 12.4688C9.01172 11.4297 8.74219 10.6094 8.20312 10.0078C7.66406 9.39844 6.92188 9.09375 5.97656 9.09375C5.46094 9.09375 5.02344 9.16406 4.66406 9.30469C4.30469 9.4375 3.91406 9.70312 3.49219 10.1016L1.21875 9.53906Z" fill="black"/>
</svg>
