<svg width="135" height="24" viewBox="0 0 135 24" fill="none" xmlns="http://www.w3.org/2000/svg">
<path d="M3.86328 18H0.910156V0.9375H3.86328V18ZM7.50781 18V0.9375H12.5469C14.0547 0.9375 15.3906 1.27344 16.5547 1.94531C17.7266 2.61719 18.6328 3.57031 19.2734 4.80469C19.9141 6.03906 20.2344 7.45312 20.2344 9.04688V9.90234C20.2344 11.5195 19.9102 12.9414 19.2617 14.168C18.6211 15.3945 17.7031 16.3398 16.5078 17.0039C15.3203 17.668 13.957 18 12.418 18H7.50781ZM10.4727 3.32812V15.6328H12.4062C13.9609 15.6328 15.1523 15.1484 15.9805 14.1797C16.8164 13.2031 17.2422 11.8047 17.2578 9.98438V9.03516C17.2578 7.18359 16.8555 5.76953 16.0508 4.79297C15.2461 3.81641 14.0781 3.32812 12.5469 3.32812H10.4727ZM42.6641 18H39.7109V3.32812H32.1992V18H29.2461V0.9375H42.6641V18ZM57.0781 11.7891C57.0781 13.75 56.6328 15.3164 55.7422 16.4883C54.8516 17.6523 53.6562 18.2344 52.1562 18.2344C50.7656 18.2344 49.6523 17.7773 48.8164 16.8633V22.875H45.9688V5.32031H48.5938L48.7109 6.60938C49.5469 5.59375 50.6836 5.08594 52.1211 5.08594C53.668 5.08594 54.8789 5.66406 55.7539 6.82031C56.6367 7.96875 57.0781 9.56641 57.0781 11.6133V11.7891ZM54.2422 11.543C54.2422 10.2773 53.9883 9.27344 53.4805 8.53125C52.9805 7.78906 52.2617 7.41797 51.3242 7.41797C50.1602 7.41797 49.3242 7.89844 48.8164 8.85938V14.4844C49.332 15.4688 50.1758 15.9609 51.3477 15.9609C52.2539 15.9609 52.9609 15.5977 53.4688 14.8711C53.9844 14.1367 54.2422 13.0273 54.2422 11.543ZM58.9648 11.543C58.9648 10.3008 59.2109 9.18359 59.7031 8.19141C60.1953 7.19141 60.8867 6.42578 61.7773 5.89453C62.668 5.35547 63.6914 5.08594 64.8477 5.08594C66.5586 5.08594 67.9453 5.63672 69.0078 6.73828C70.0781 7.83984 70.6562 9.30078 70.7422 11.1211L70.7539 11.7891C70.7539 13.0391 70.5117 14.1562 70.0273 15.1406C69.5508 16.125 68.8633 16.8867 67.9648 17.4258C67.0742 17.9648 66.043 18.2344 64.8711 18.2344C63.082 18.2344 61.6484 17.6406 60.5703 16.4531C59.5 15.2578 58.9648 13.668 58.9648 11.6836V11.543ZM61.8125 11.7891C61.8125 13.0938 62.082 14.1172 62.6211 14.8594C63.1602 15.5938 63.9102 15.9609 64.8711 15.9609C65.832 15.9609 66.5781 15.5859 67.1094 14.8359C67.6484 14.0859 67.918 12.9883 67.918 11.543C67.918 10.2617 67.6406 9.24609 67.0859 8.49609C66.5391 7.74609 65.793 7.37109 64.8477 7.37109C63.918 7.37109 63.1797 7.74219 62.6328 8.48438C62.0859 9.21875 61.8125 10.3203 61.8125 11.7891ZM72.3711 15.7266C73.1602 14.8438 73.6875 14.0078 73.9531 13.2188C74.2266 12.4219 74.3906 11.4062 74.4453 10.1719L74.6094 5.32031H83.4102V15.7266H85.168V21.7734H82.332V18H74.1992V21.7734H71.3164L71.3281 15.7266H72.3711ZM75.7109 15.7266H80.5742V7.76953H77.375L77.293 10.1953C77.1836 12.5234 76.6562 14.3672 75.7109 15.7266ZM91.6367 13.9219L94.2148 5.32031H97.25L92.2109 19.9219C91.4375 22.0547 90.125 23.1211 88.2734 23.1211C87.8594 23.1211 87.4023 23.0508 86.9023 22.9102V20.707L87.4414 20.7422C88.1602 20.7422 88.6992 20.6094 89.0586 20.3438C89.4258 20.0859 89.7148 19.6484 89.9258 19.0312L90.3359 17.9414L85.8828 5.32031H88.9531L91.6367 13.9219ZM103.402 12.9844H101.961V18H99.1133V5.32031H101.961V10.3828H103.215L106.719 5.32031H110.234L105.652 11.3906L110.621 18H106.918L103.402 12.9844ZM122.164 7.58203H118.051V18H115.203V7.58203H111.137V5.32031H122.164V7.58203ZM131.457 18C131.332 17.7578 131.223 17.3633 131.129 16.8164C130.223 17.7617 129.113 18.2344 127.801 18.2344C126.527 18.2344 125.488 17.8711 124.684 17.1445C123.879 16.418 123.477 15.5195 123.477 14.4492C123.477 13.0977 123.977 12.0625 124.977 11.3438C125.984 10.6172 127.422 10.2539 129.289 10.2539H131.035V9.42188C131.035 8.76562 130.852 8.24219 130.484 7.85156C130.117 7.45312 129.559 7.25391 128.809 7.25391C128.16 7.25391 127.629 7.41797 127.215 7.74609C126.801 8.06641 126.594 8.47656 126.594 8.97656H123.746C123.746 8.28125 123.977 7.63281 124.438 7.03125C124.898 6.42188 125.523 5.94531 126.312 5.60156C127.109 5.25781 127.996 5.08594 128.973 5.08594C130.457 5.08594 131.641 5.46094 132.523 6.21094C133.406 6.95312 133.859 8 133.883 9.35156V15.0703C133.883 16.2109 134.043 17.1211 134.363 17.8008V18H131.457ZM128.328 15.9492C128.891 15.9492 129.418 15.8125 129.91 15.5391C130.41 15.2656 130.785 14.8984 131.035 14.4375V12.0469H129.5C128.445 12.0469 127.652 12.2305 127.121 12.5977C126.59 12.9648 126.324 13.4844 126.324 14.1562C126.324 14.7031 126.504 15.1406 126.863 15.4688C127.23 15.7891 127.719 15.9492 128.328 15.9492Z" fill="white"/>
</svg>
