<svg width="91" height="27" viewBox="0 0 91 27" fill="none" xmlns="http://www.w3.org/2000/svg">
<path d="M7.10352 21.2539H17.8438V26H0.933594V0.40625H7.10352V21.2539ZM40.9941 13.7305C40.9941 16.2266 40.5312 18.4355 39.6055 20.3574C38.6797 22.2793 37.3613 23.7617 35.6504 24.8047C33.9512 25.8359 32.0117 26.3516 29.832 26.3516C27.6523 26.3516 25.7188 25.8535 24.0312 24.8574C22.3438 23.8496 21.0254 22.4141 20.0762 20.5508C19.1387 18.6875 18.6465 16.5488 18.5996 14.1348V12.6934C18.5996 10.1855 19.0566 7.97656 19.9707 6.06641C20.8965 4.14453 22.2148 2.66211 23.9258 1.61914C25.6484 0.576172 27.6055 0.0546875 29.7969 0.0546875C31.9648 0.0546875 33.8984 0.570312 35.5977 1.60156C37.2969 2.63281 38.6152 4.10352 39.5527 6.01367C40.502 7.91211 40.9824 10.0918 40.9941 12.5527V13.7305ZM34.7188 12.6582C34.7188 10.1152 34.291 8.1875 33.4355 6.875C32.5918 5.55078 31.3789 4.88867 29.7969 4.88867C26.7031 4.88867 25.0684 7.20898 24.8926 11.8496L24.875 13.7305C24.875 16.2383 25.291 18.166 26.123 19.5137C26.9551 20.8613 28.1914 21.5352 29.832 21.5352C31.3906 21.5352 32.5918 20.873 33.4355 19.5488C34.2793 18.2246 34.707 16.3203 34.7188 13.8359V12.6582ZM65.1289 22.8359C64.1797 23.8906 62.791 24.7402 60.9629 25.3848C59.1348 26.0293 57.1309 26.3516 54.9512 26.3516C51.5996 26.3516 48.9219 25.3262 46.918 23.2754C44.9141 21.2246 43.8418 18.3711 43.7012 14.7148L43.6836 12.5C43.6836 9.98047 44.1289 7.7832 45.0195 5.9082C45.9102 4.02148 47.1816 2.57422 48.834 1.56641C50.498 0.546875 52.4199 0.0371094 54.5996 0.0371094C57.7871 0.0371094 60.2598 0.769531 62.0176 2.23438C63.7871 3.6875 64.8184 5.86133 65.1113 8.75586H59.1699C58.959 7.32617 58.502 6.30664 57.7988 5.69727C57.0957 5.08789 56.0996 4.7832 54.8105 4.7832C53.2637 4.7832 52.0684 5.43945 51.2246 6.75195C50.3809 8.06445 49.9531 9.93945 49.9414 12.377V13.9238C49.9414 16.4785 50.375 18.4004 51.2422 19.6895C52.1211 20.9668 53.498 21.6055 55.373 21.6055C56.9785 21.6055 58.1738 21.248 58.959 20.5332V16.5605H54.6699V12.3242H65.1289V22.8359ZM90.3887 13.7305C90.3887 16.2266 89.9258 18.4355 89 20.3574C88.0742 22.2793 86.7559 23.7617 85.0449 24.8047C83.3457 25.8359 81.4062 26.3516 79.2266 26.3516C77.0469 26.3516 75.1133 25.8535 73.4258 24.8574C71.7383 23.8496 70.4199 22.4141 69.4707 20.5508C68.5332 18.6875 68.041 16.5488 67.9941 14.1348V12.6934C67.9941 10.1855 68.4512 7.97656 69.3652 6.06641C70.291 4.14453 71.6094 2.66211 73.3203 1.61914C75.043 0.576172 77 0.0546875 79.1914 0.0546875C81.3594 0.0546875 83.293 0.570312 84.9922 1.60156C86.6914 2.63281 88.0098 4.10352 88.9473 6.01367C89.8965 7.91211 90.377 10.0918 90.3887 12.5527V13.7305ZM84.1133 12.6582C84.1133 10.1152 83.6855 8.1875 82.8301 6.875C81.9863 5.55078 80.7734 4.88867 79.1914 4.88867C76.0977 4.88867 74.4629 7.20898 74.2871 11.8496L74.2695 13.7305C74.2695 16.2383 74.6855 18.166 75.5176 19.5137C76.3496 20.8613 77.5859 21.5352 79.2266 21.5352C80.7852 21.5352 81.9863 20.873 82.8301 19.5488C83.6738 18.2246 84.1016 16.3203 84.1133 13.8359V12.6582Z" fill="#FF7A00"/>
</svg>
