<svg width="44" height="44" viewBox="0 0 44 44" fill="none" xmlns="http://www.w3.org/2000/svg">
<g clip-path="url(#clip0)">
<path d="M14.0358 34.2246C11.4989 34.2246 9.44232 36.2812 9.44232 38.8181C9.44232 41.3551 11.499 43.4117 14.0358 43.4117C16.5728 43.4117 18.6294 41.355 18.6294 38.8181C18.6295 36.2812 16.5728 34.2246 14.0358 34.2246ZM14.0358 41.3702C12.6264 41.3702 11.4839 40.2276 11.4839 38.8182C11.4839 37.4088 12.6264 36.2663 14.0358 36.2663C15.4453 36.2663 16.5878 37.4088 16.5878 38.8182C16.5879 40.2276 15.4453 41.3702 14.0358 41.3702Z" fill="#FFBC7D"/>
<path d="M33.4309 34.2246C30.8939 34.2246 28.8374 36.2812 28.8374 38.8181C28.8374 41.3551 30.894 43.4117 33.4309 43.4117C35.9678 43.4117 38.0244 41.355 38.0244 38.8181C38.0244 36.2812 35.9679 34.2246 33.4309 34.2246ZM33.4309 41.3702C32.0215 41.3702 30.879 40.2276 30.879 38.8182C30.879 37.4088 32.0215 36.2663 33.4309 36.2663C34.8403 36.2663 35.9829 37.4088 35.9829 38.8182C35.983 40.2276 34.8403 41.3702 33.4309 41.3702Z" fill="#FFBC7D"/>
<path d="M43.7919 7.42888C43.5794 7.19666 43.2885 7.05129 42.9753 7.02052L9.74858 6.56117L8.82988 3.75395C8.18266 1.87737 6.42536 0.610482 4.44044 0.589478H1.02079C0.457008 0.589478 0 1.04649 0 1.61027C0 2.17406 0.457008 2.63107 1.02079 2.63107H4.44044C5.55033 2.65559 6.52765 3.36826 6.89038 4.41749L13.3724 23.9657L12.8621 25.1396C12.2928 26.6075 12.4638 28.2597 13.3214 29.58C14.1708 30.8768 15.5999 31.6771 17.1494 31.7237H37.0038C37.5676 31.7237 38.0246 31.2667 38.0246 30.7029C38.0246 30.1391 37.5676 29.6821 37.0038 29.6821H17.1493C16.2743 29.6602 15.4688 29.1999 15.0056 28.4571C14.5477 27.7235 14.4536 26.8196 14.7505 26.0072L15.1588 25.0885L36.6465 22.8427C39.0067 22.5827 40.9483 20.8661 41.4953 18.5553L43.9452 8.29639C44.0556 8.00097 43.997 7.66871 43.7919 7.42888ZM39.5047 18.0961C39.1733 19.5836 37.9104 20.6808 36.3913 20.8012L15.1588 22.9959L10.4121 8.60276L41.6994 9.06211L39.5047 18.0961Z" fill="#FFBC7D"/>
</g>
<defs>
<clipPath id="clip0">
<rect width="44" height="44" fill="white"/>
</clipPath>
</defs>
</svg>
