<svg width="44" height="44" viewBox="0 0 44 44" fill="none" xmlns="http://www.w3.org/2000/svg">
<g clip-path="url(#clip0)">
<path d="M37.5564 6.44363C33.4012 2.28842 27.8763 0 22 0C16.1234 0 10.5988 2.28842 6.44363 6.44363C2.28842 10.5988 0 16.1234 0 22C0 27.8763 2.28842 33.4012 6.44363 37.5564C10.5988 41.7116 16.1234 44 22 44C27.8763 44 33.4012 41.7116 37.5564 37.5564C41.7116 33.4012 44 27.8763 44 22C44 16.1234 41.7116 10.5988 37.5564 6.44363ZM11.0292 38.0176C11.9493 32.7197 16.5403 28.8119 22 28.8119C27.4601 28.8119 32.0507 32.7197 32.9708 38.0176C29.8472 40.1637 26.0679 41.4219 22 41.4219C17.9321 41.4219 14.1528 40.1637 11.0292 38.0176ZM15.0048 19.2386C15.0048 15.3811 18.1429 12.2434 22 12.2434C25.8571 12.2434 28.9952 15.3815 28.9952 19.2386C28.9952 23.0957 25.8571 26.2338 22 26.2338C18.1429 26.2338 15.0048 23.0957 15.0048 19.2386ZM35.2038 36.2294C34.5099 33.763 33.1319 31.5253 31.2003 29.7773C30.0154 28.7048 28.6665 27.8585 27.2163 27.262C29.8374 25.5523 31.5736 22.5945 31.5736 19.2386C31.5736 13.9598 27.2788 9.66528 22 9.66528C16.7212 9.66528 12.4267 13.9598 12.4267 19.2386C12.4267 22.5945 14.1629 25.5523 16.7837 27.262C15.3338 27.8585 13.9846 28.7045 12.7997 29.777C10.8684 31.525 9.49005 33.7627 8.79617 36.229C4.9743 32.6797 2.57812 27.6148 2.57812 22C2.57812 11.2907 11.2907 2.57812 22 2.57812C32.7093 2.57812 41.4219 11.2907 41.4219 22C41.4219 27.6151 39.0257 32.6801 35.2038 36.2294Z" fill="#FFBC7D"/>
</g>
<defs>
<clipPath id="clip0">
<rect width="44" height="44" fill="white"/>
</clipPath>
</defs>
</svg>
