<svg width="78" height="14" viewBox="0 0 78 14" fill="none" xmlns="http://www.w3.org/2000/svg">
<path d="M8.14062 0.203125H10.3643V13H8.14062V3.88574L2.52441 13H0.300781V0.203125H2.52441V9.32617L8.14062 0.203125ZM16.7275 11.4707C17.2607 11.4707 17.7031 11.3154 18.0547 11.0049C18.4062 10.6943 18.5938 10.3105 18.6172 9.85352H20.6299C20.6064 10.4453 20.4219 10.999 20.0762 11.5146C19.7305 12.0244 19.2617 12.4287 18.6699 12.7275C18.0781 13.0264 17.4395 13.1758 16.7539 13.1758C15.4238 13.1758 14.3691 12.7451 13.5898 11.8838C12.8105 11.0225 12.4209 9.83301 12.4209 8.31543V8.0957C12.4209 6.64844 12.8076 5.49121 13.5811 4.62402C14.3545 3.75098 15.4092 3.31445 16.7451 3.31445C17.876 3.31445 18.7959 3.64551 19.5049 4.30762C20.2197 4.96387 20.5947 5.82812 20.6299 6.90039H18.6172C18.5938 6.35547 18.4062 5.90723 18.0547 5.55566C17.709 5.2041 17.2666 5.02832 16.7275 5.02832C16.0361 5.02832 15.5029 5.28027 15.1279 5.78418C14.7529 6.28223 14.5625 7.04102 14.5566 8.06055V8.40332C14.5566 9.43457 14.7412 10.2051 15.1104 10.7148C15.4854 11.2188 16.0244 11.4707 16.7275 11.4707ZM25.6221 9.23828H24.541V13H22.4053V3.49023H24.541V7.28711H25.4814L28.1094 3.49023H30.7461L27.3096 8.04297L31.0361 13H28.2588L25.6221 9.23828ZM37.8916 13C37.7979 12.8184 37.7158 12.5225 37.6455 12.1123C36.9658 12.8213 36.1338 13.1758 35.1494 13.1758C34.1943 13.1758 33.415 12.9033 32.8115 12.3584C32.208 11.8135 31.9062 11.1396 31.9062 10.3369C31.9062 9.32324 32.2812 8.54688 33.0312 8.00781C33.7871 7.46289 34.8652 7.19043 36.2656 7.19043H37.5752V6.56641C37.5752 6.07422 37.4375 5.68164 37.1621 5.38867C36.8867 5.08984 36.4678 4.94043 35.9053 4.94043C35.4189 4.94043 35.0205 5.06348 34.71 5.30957C34.3994 5.5498 34.2441 5.85742 34.2441 6.23242H32.1084C32.1084 5.71094 32.2812 5.22461 32.627 4.77344C32.9727 4.31641 33.4414 3.95898 34.0332 3.70117C34.6309 3.44336 35.2959 3.31445 36.0283 3.31445C37.1416 3.31445 38.0293 3.5957 38.6914 4.1582C39.3535 4.71484 39.6934 5.5 39.7109 6.51367V10.8027C39.7109 11.6582 39.8311 12.3408 40.0713 12.8506V13H37.8916ZM35.5449 11.4619C35.9668 11.4619 36.3623 11.3594 36.7314 11.1543C37.1064 10.9492 37.3877 10.6738 37.5752 10.3281V8.53516H36.4238C35.6328 8.53516 35.0381 8.67285 34.6396 8.94824C34.2412 9.22363 34.042 9.61328 34.042 10.1172C34.042 10.5273 34.1768 10.8555 34.4463 11.1016C34.7217 11.3418 35.0879 11.4619 35.5449 11.4619ZM49.291 5.18652H46.2061V13H44.0703V5.18652H41.0205V3.49023H49.291V5.18652ZM53.0176 6.51367H55.1094C55.8887 6.51367 56.5684 6.64844 57.1484 6.91797C57.7285 7.1875 58.168 7.56543 58.4668 8.05176C58.7715 8.53809 58.9238 9.10352 58.9238 9.74805C58.9238 10.7266 58.5781 11.5117 57.8867 12.1035C57.1953 12.6953 56.2754 12.9941 55.127 13H50.8818V3.49023H53.0176V6.51367ZM53.0176 8.22754V11.2949H55.1006C55.6221 11.2949 56.0322 11.166 56.3311 10.9082C56.6357 10.6445 56.7881 10.2725 56.7881 9.79199C56.7881 9.31152 56.6387 8.93359 56.3398 8.6582C56.0469 8.37695 55.6484 8.2334 55.1445 8.22754H53.0176ZM66.4473 10.75C66.8457 10.75 67.1533 10.8643 67.3701 11.0928C67.5869 11.3154 67.6953 11.5967 67.6953 11.9365C67.6953 12.2705 67.5869 12.5488 67.3701 12.7715C67.1533 12.9883 66.8457 13.0967 66.4473 13.0967C66.0664 13.0967 65.7646 12.9883 65.542 12.7715C65.3193 12.5547 65.208 12.2764 65.208 11.9365C65.208 11.5967 65.3164 11.3154 65.5332 11.0928C65.75 10.8643 66.0547 10.75 66.4473 10.75ZM71.4746 10.75C71.873 10.75 72.1807 10.8643 72.3975 11.0928C72.6143 11.3154 72.7227 11.5967 72.7227 11.9365C72.7227 12.2705 72.6143 12.5488 72.3975 12.7715C72.1807 12.9883 71.873 13.0967 71.4746 13.0967C71.0938 13.0967 70.792 12.9883 70.5693 12.7715C70.3467 12.5547 70.2354 12.2764 70.2354 11.9365C70.2354 11.5967 70.3438 11.3154 70.5605 11.0928C70.7773 10.8643 71.082 10.75 71.4746 10.75ZM76.502 10.75C76.9004 10.75 77.208 10.8643 77.4248 11.0928C77.6416 11.3154 77.75 11.5967 77.75 11.9365C77.75 12.2705 77.6416 12.5488 77.4248 12.7715C77.208 12.9883 76.9004 13.0967 76.502 13.0967C76.1211 13.0967 75.8193 12.9883 75.5967 12.7715C75.374 12.5547 75.2627 12.2764 75.2627 11.9365C75.2627 11.5967 75.3711 11.3154 75.5879 11.0928C75.8047 10.8643 76.1094 10.75 76.502 10.75Z" fill="#CFCFCF"/>
</svg>
