<svg width="105" height="19" viewBox="0 0 105 19" fill="none" xmlns="http://www.w3.org/2000/svg">
<path d="M5.78516 10.6875H3.76953V18H0.816406V0.9375H3.76953V8.10938H5.39844L10.4141 0.9375H14.0469L8.1875 9.10547L14.5625 18H11L5.78516 10.6875ZM25.7539 14.0273H19.1445L17.7617 18H14.6797L21.125 0.9375H23.7852L30.2422 18H27.1484L25.7539 14.0273ZM19.9766 11.6367H24.9219L22.4492 4.55859L19.9766 11.6367ZM43.1094 3.32812H37.7891V18H34.8477V3.32812H29.5742V0.9375H43.1094V3.32812ZM53.5039 14.0273H46.8945L45.5117 18H42.4297L48.875 0.9375H51.5352L57.9922 18H54.8984L53.5039 14.0273ZM47.7266 11.6367H52.6719L50.1992 4.55859L47.7266 11.6367ZM73.5664 0.9375V18H70.6133V3.32812H65.3867L65.082 9.92578C64.9648 11.9883 64.7109 13.5898 64.3203 14.7305C63.9375 15.8633 63.3789 16.6914 62.6445 17.2148C61.9102 17.7383 60.9258 18 59.6914 18H58.9414V15.6328L59.4102 15.5977C60.0898 15.5352 60.6133 15.2969 60.9805 14.8828C61.3555 14.4688 61.6367 13.8438 61.8242 13.0078C62.0195 12.1641 62.1562 10.9258 62.2344 9.29297L62.5625 0.9375H73.5664ZM90.7578 9.91406C90.7578 11.5859 90.4688 13.0547 89.8906 14.3203C89.3125 15.5781 88.4844 16.5469 87.4062 17.2266C86.3359 17.8984 85.1016 18.2344 83.7031 18.2344C82.3203 18.2344 81.0859 17.8984 80 17.2266C78.9219 16.5469 78.0859 15.582 77.4922 14.332C76.9062 13.082 76.6094 11.6406 76.6016 10.0078V9.04688C76.6016 7.38281 76.8945 5.91406 77.4805 4.64062C78.0742 3.36719 78.9062 2.39453 79.9766 1.72266C81.0547 1.04297 82.2891 0.703125 83.6797 0.703125C85.0703 0.703125 86.3008 1.03906 87.3711 1.71094C88.4492 2.375 89.2812 3.33594 89.8672 4.59375C90.4531 5.84375 90.75 7.30078 90.7578 8.96484V9.91406ZM87.793 9.02344C87.793 7.13281 87.4336 5.68359 86.7148 4.67578C86.0039 3.66797 84.9922 3.16406 83.6797 3.16406C82.3984 3.16406 81.3945 3.66797 80.668 4.67578C79.9492 5.67578 79.582 7.09375 79.5664 8.92969V9.91406C79.5664 11.7891 79.9297 13.2383 80.6562 14.2617C81.3906 15.2852 82.4062 15.7969 83.7031 15.7969C85.0156 15.7969 86.0234 15.2969 86.7266 14.2969C87.4375 13.2969 87.793 11.8359 87.793 9.91406V9.02344ZM104.621 3.32812H96.7461V18H93.793V0.9375H104.621V3.32812Z" fill="#FFBC7D"/>
</svg>
