<svg width="212" height="23" viewBox="0 0 212 23" fill="none" xmlns="http://www.w3.org/2000/svg">
<path d="M14.5 10.9141C14.5 12.5859 14.2109 14.0547 13.6328 15.3203C13.0547 16.5781 12.2266 17.5469 11.1484 18.2266C10.0781 18.8984 8.84375 19.2344 7.44531 19.2344C6.0625 19.2344 4.82812 18.8984 3.74219 18.2266C2.66406 17.5469 1.82812 16.582 1.23438 15.332C0.648438 14.082 0.351562 12.6406 0.34375 11.0078V10.0469C0.34375 8.38281 0.636719 6.91406 1.22266 5.64062C1.81641 4.36719 2.64844 3.39453 3.71875 2.72266C4.79688 2.04297 6.03125 1.70312 7.42188 1.70312C8.8125 1.70312 10.043 2.03906 11.1133 2.71094C12.1914 3.375 13.0234 4.33594 13.6094 5.59375C14.1953 6.84375 14.4922 8.30078 14.5 9.96484V10.9141ZM11.5352 10.0234C11.5352 8.13281 11.1758 6.68359 10.457 5.67578C9.74609 4.66797 8.73438 4.16406 7.42188 4.16406C6.14062 4.16406 5.13672 4.66797 4.41016 5.67578C3.69141 6.67578 3.32422 8.09375 3.30859 9.92969V10.9141C3.30859 12.7891 3.67188 14.2383 4.39844 15.2617C5.13281 16.2852 6.14844 16.7969 7.44531 16.7969C8.75781 16.7969 9.76562 16.2969 10.4688 15.2969C11.1797 14.2969 11.5352 12.8359 11.5352 10.9141V10.0234ZM23.1484 7.02344C24.7422 7.02344 26.0195 7.55859 26.9805 8.62891C27.9414 9.69141 28.4219 11.1367 28.4219 12.9648V13.1055C28.4219 14.9336 27.8984 16.4141 26.8516 17.5469C25.8125 18.6797 24.3984 19.2461 22.6094 19.2461C20.8672 19.2461 19.4609 18.668 18.3906 17.5117C17.3203 16.3555 16.7852 14.7773 16.7852 12.7773V11.957C16.7852 9.22266 17.2695 7.05859 18.2383 5.46484C19.207 3.87109 20.6523 2.875 22.5742 2.47656C23.6523 2.25781 24.3477 2.02734 24.6602 1.78516C24.9805 1.53516 25.1406 1.19922 25.1406 0.777344H27.4375C27.4375 1.56641 27.3086 2.20703 27.0508 2.69922C26.793 3.19141 26.3984 3.59375 25.8672 3.90625C25.3359 4.21094 24.4219 4.5 23.125 4.77344C21.9375 5.02344 21.0312 5.46875 20.4062 6.10938C19.7891 6.75 19.375 7.63672 19.1641 8.76953C20.2969 7.60547 21.625 7.02344 23.1484 7.02344ZM22.5859 9.30859C21.6641 9.30859 20.9414 9.62109 20.418 10.2461C19.8945 10.8633 19.6328 11.8164 19.6328 13.1055C19.6328 14.3242 19.8906 15.2734 20.4062 15.9531C20.9219 16.6328 21.6562 16.9727 22.6094 16.9727C23.5547 16.9727 24.2852 16.6328 24.8008 15.9531C25.3242 15.2656 25.5859 14.2344 25.5859 12.8594C25.5859 11.7656 25.3242 10.9023 24.8008 10.2695C24.2852 9.62891 23.5469 9.30859 22.5859 9.30859ZM33.3086 6.32031V16.7266H37.2695V6.32031H40.1172V16.7266H44.0898V6.32031H46.9258V16.7266H49.0938L48.8594 22.7617H46.2695V19H30.4609V6.32031H33.3086ZM56.582 19.2344C54.7773 19.2344 53.3125 18.668 52.1875 17.5352C51.0703 16.3945 50.5117 14.8789 50.5117 12.9883V12.6367C50.5117 11.3711 50.7539 10.2422 51.2383 9.25C51.7305 8.25 52.418 7.47266 53.3008 6.91797C54.1836 6.36328 55.168 6.08594 56.2539 6.08594C57.9805 6.08594 59.3125 6.63672 60.25 7.73828C61.1953 8.83984 61.668 10.3984 61.668 12.4141V13.5625H53.3828C53.4688 14.6094 53.8164 15.4375 54.4258 16.0469C55.043 16.6562 55.8164 16.9609 56.7461 16.9609C58.0508 16.9609 59.1133 16.4336 59.9336 15.3789L61.4688 16.8438C60.9609 17.6016 60.2812 18.1914 59.4297 18.6133C58.5859 19.0273 57.6367 19.2344 56.582 19.2344ZM56.2422 8.37109C55.4609 8.37109 54.8281 8.64453 54.3438 9.19141C53.8672 9.73828 53.5625 10.5 53.4297 11.4766H58.8555V11.2656C58.793 10.3125 58.5391 9.59375 58.0938 9.10938C57.6484 8.61719 57.0312 8.37109 56.2422 8.37109ZM69.4727 19.2344C67.668 19.2344 66.2031 18.668 65.0781 17.5352C63.9609 16.3945 63.4023 14.8789 63.4023 12.9883V12.6367C63.4023 11.3711 63.6445 10.2422 64.1289 9.25C64.6211 8.25 65.3086 7.47266 66.1914 6.91797C67.0742 6.36328 68.0586 6.08594 69.1445 6.08594C70.8711 6.08594 72.2031 6.63672 73.1406 7.73828C74.0859 8.83984 74.5586 10.3984 74.5586 12.4141V13.5625H66.2734C66.3594 14.6094 66.707 15.4375 67.3164 16.0469C67.9336 16.6562 68.707 16.9609 69.6367 16.9609C70.9414 16.9609 72.0039 16.4336 72.8242 15.3789L74.3594 16.8438C73.8516 17.6016 73.1719 18.1914 72.3203 18.6133C71.4766 19.0273 70.5273 19.2344 69.4727 19.2344ZM69.1328 8.37109C68.3516 8.37109 67.7188 8.64453 67.2344 9.19141C66.7578 9.73828 66.4531 10.5 66.3203 11.4766H71.7461V11.2656C71.6836 10.3125 71.4297 9.59375 70.9844 9.10938C70.5391 8.61719 69.9219 8.37109 69.1328 8.37109ZM87.2617 13.9844H85.8203V19H82.9727V6.32031H85.8203V11.3828H87.0742L90.5781 6.32031H94.0938L89.5117 12.3906L94.4805 19H90.7773L87.2617 13.9844ZM94.832 12.543C94.832 11.3008 95.0781 10.1836 95.5703 9.19141C96.0625 8.19141 96.7539 7.42578 97.6445 6.89453C98.5352 6.35547 99.5586 6.08594 100.715 6.08594C102.426 6.08594 103.812 6.63672 104.875 7.73828C105.945 8.83984 106.523 10.3008 106.609 12.1211L106.621 12.7891C106.621 14.0391 106.379 15.1562 105.895 16.1406C105.418 17.125 104.73 17.8867 103.832 18.4258C102.941 18.9648 101.91 19.2344 100.738 19.2344C98.9492 19.2344 97.5156 18.6406 96.4375 17.4531C95.3672 16.2578 94.832 14.668 94.832 12.6836V12.543ZM97.6797 12.7891C97.6797 14.0938 97.9492 15.1172 98.4883 15.8594C99.0273 16.5938 99.7773 16.9609 100.738 16.9609C101.699 16.9609 102.445 16.5859 102.977 15.8359C103.516 15.0859 103.785 13.9883 103.785 12.543C103.785 11.2617 103.508 10.2461 102.953 9.49609C102.406 8.74609 101.66 8.37109 100.715 8.37109C99.7852 8.37109 99.0469 8.74219 98.5 9.48438C97.9531 10.2188 97.6797 11.3203 97.6797 12.7891ZM119.617 6.32031V19H116.77V8.61719H113.184L112.949 13.0352C112.801 15.1602 112.391 16.6875 111.719 17.6172C111.055 18.5391 110.035 19 108.66 19H107.781L107.77 16.6328L108.355 16.5742C108.98 16.4883 109.434 16.1094 109.715 15.4375C110.004 14.7578 110.188 13.5234 110.266 11.7344L110.5 6.32031H119.617ZM130.562 6.32031H133.398V19H130.562V10.5391L125.594 19H122.758V6.32031H125.594V14.7812L130.562 6.32031ZM146.594 19H143.746V14.7695C143.012 14.9414 142.238 15.0273 141.426 15.0273C139.691 15.0273 138.367 14.6133 137.453 13.7852C136.539 12.9492 136.082 11.7539 136.082 10.1992V6.30859H138.93V10.1992C138.93 11.1211 139.133 11.7734 139.539 12.1562C139.953 12.5391 140.582 12.7305 141.426 12.7305C142.191 12.7305 142.965 12.6406 143.746 12.4609V6.32031H146.594V19ZM155.207 19.2344C153.402 19.2344 151.938 18.668 150.812 17.5352C149.695 16.3945 149.137 14.8789 149.137 12.9883V12.6367C149.137 11.3711 149.379 10.2422 149.863 9.25C150.355 8.25 151.043 7.47266 151.926 6.91797C152.809 6.36328 153.793 6.08594 154.879 6.08594C156.605 6.08594 157.938 6.63672 158.875 7.73828C159.82 8.83984 160.293 10.3984 160.293 12.4141V13.5625H152.008C152.094 14.6094 152.441 15.4375 153.051 16.0469C153.668 16.6562 154.441 16.9609 155.371 16.9609C156.676 16.9609 157.738 16.4336 158.559 15.3789L160.094 16.8438C159.586 17.6016 158.906 18.1914 158.055 18.6133C157.211 19.0273 156.262 19.2344 155.207 19.2344ZM154.867 8.37109C154.086 8.37109 153.453 8.64453 152.969 9.19141C152.492 9.73828 152.188 10.5 152.055 11.4766H157.48V11.2656C157.418 10.3125 157.164 9.59375 156.719 9.10938C156.273 8.61719 155.656 8.37109 154.867 8.37109ZM167.723 16.9609C168.434 16.9609 169.023 16.7539 169.492 16.3398C169.961 15.9258 170.211 15.4141 170.242 14.8047H172.926C172.895 15.5938 172.648 16.332 172.188 17.0195C171.727 17.6992 171.102 18.2383 170.312 18.6367C169.523 19.0352 168.672 19.2344 167.758 19.2344C165.984 19.2344 164.578 18.6602 163.539 17.5117C162.5 16.3633 161.98 14.7773 161.98 12.7539V12.4609C161.98 10.5312 162.496 8.98828 163.527 7.83203C164.559 6.66797 165.965 6.08594 167.746 6.08594C169.254 6.08594 170.48 6.52734 171.426 7.41016C172.379 8.28516 172.879 9.4375 172.926 10.8672H170.242C170.211 10.1406 169.961 9.54297 169.492 9.07422C169.031 8.60547 168.441 8.37109 167.723 8.37109C166.801 8.37109 166.09 8.70703 165.59 9.37891C165.09 10.043 164.836 11.0547 164.828 12.4141V12.8711C164.828 14.2461 165.074 15.2734 165.566 15.9531C166.066 16.625 166.785 16.9609 167.723 16.9609ZM185.055 8.58203H180.941V19H178.094V8.58203H174.027V6.32031H185.055V8.58203ZM187.176 19V6.32031H192.32C194.055 6.32031 195.375 6.625 196.281 7.23438C197.188 7.83594 197.641 8.70312 197.641 9.83594C197.641 10.4219 197.457 10.9492 197.09 11.418C196.73 11.8789 196.195 12.2344 195.484 12.4844C196.312 12.6562 196.969 13.0039 197.453 13.5273C197.938 14.0508 198.18 14.668 198.18 15.3789C198.18 16.5586 197.742 17.457 196.867 18.0742C196 18.6914 194.75 19 193.117 19H187.176ZM190.023 13.5977V16.75H193.141C194.602 16.75 195.332 16.2266 195.332 15.1797C195.332 14.125 194.59 13.5977 193.105 13.5977H190.023ZM190.023 11.5586H192.367C193.984 11.5586 194.793 11.082 194.793 10.1289C194.793 9.12891 194.027 8.61328 192.496 8.58203H190.023V11.5586ZM200.113 12.543C200.113 11.3008 200.359 10.1836 200.852 9.19141C201.344 8.19141 202.035 7.42578 202.926 6.89453C203.816 6.35547 204.84 6.08594 205.996 6.08594C207.707 6.08594 209.094 6.63672 210.156 7.73828C211.227 8.83984 211.805 10.3008 211.891 12.1211L211.902 12.7891C211.902 14.0391 211.66 15.1562 211.176 16.1406C210.699 17.125 210.012 17.8867 209.113 18.4258C208.223 18.9648 207.191 19.2344 206.02 19.2344C204.23 19.2344 202.797 18.6406 201.719 17.4531C200.648 16.2578 200.113 14.668 200.113 12.6836V12.543ZM202.961 12.7891C202.961 14.0938 203.23 15.1172 203.77 15.8594C204.309 16.5938 205.059 16.9609 206.02 16.9609C206.98 16.9609 207.727 16.5859 208.258 15.8359C208.797 15.0859 209.066 13.9883 209.066 12.543C209.066 11.2617 208.789 10.2461 208.234 9.49609C207.688 8.74609 206.941 8.37109 205.996 8.37109C205.066 8.37109 204.328 8.74219 203.781 9.48438C203.234 10.2188 202.961 11.3203 202.961 12.7891Z" fill="white"/>
</svg>
