<svg width="195" height="20" viewBox="0 0 195 20" fill="none" xmlns="http://www.w3.org/2000/svg">
<path d="M14.3516 10.9141C14.3516 12.5859 14.0625 14.0547 13.4844 15.3203C12.9062 16.5781 12.0781 17.5469 11 18.2266C9.92969 18.8984 8.69531 19.2344 7.29688 19.2344C5.91406 19.2344 4.67969 18.8984 3.59375 18.2266C2.51562 17.5469 1.67969 16.582 1.08594 15.332C0.5 14.082 0.203125 12.6406 0.195312 11.0078V10.0469C0.195312 8.38281 0.488281 6.91406 1.07422 5.64062C1.66797 4.36719 2.5 3.39453 3.57031 2.72266C4.64844 2.04297 5.88281 1.70312 7.27344 1.70312C8.66406 1.70312 9.89453 2.03906 10.9648 2.71094C12.043 3.375 12.875 4.33594 13.4609 5.59375C14.0469 6.84375 14.3438 8.30078 14.3516 9.96484V10.9141ZM11.3867 10.0234C11.3867 8.13281 11.0273 6.68359 10.3086 5.67578C9.59766 4.66797 8.58594 4.16406 7.27344 4.16406C5.99219 4.16406 4.98828 4.66797 4.26172 5.67578C3.54297 6.67578 3.17578 8.09375 3.16016 9.92969V10.9141C3.16016 12.7891 3.52344 14.2383 4.25 15.2617C4.98438 16.2852 6 16.7969 7.29688 16.7969C8.60938 16.7969 9.61719 16.2969 10.3203 15.2969C11.0312 14.2969 11.3867 12.8359 11.3867 10.9141V10.0234ZM23 7.02344C24.5938 7.02344 25.8711 7.55859 26.832 8.62891C27.793 9.69141 28.2734 11.1367 28.2734 12.9648V13.1055C28.2734 14.9336 27.75 16.4141 26.7031 17.5469C25.6641 18.6797 24.25 19.2461 22.4609 19.2461C20.7188 19.2461 19.3125 18.668 18.2422 17.5117C17.1719 16.3555 16.6367 14.7773 16.6367 12.7773V11.957C16.6367 9.22266 17.1211 7.05859 18.0898 5.46484C19.0586 3.87109 20.5039 2.875 22.4258 2.47656C23.5039 2.25781 24.1992 2.02734 24.5117 1.78516C24.832 1.53516 24.9922 1.19922 24.9922 0.777344H27.2891C27.2891 1.56641 27.1602 2.20703 26.9023 2.69922C26.6445 3.19141 26.25 3.59375 25.7188 3.90625C25.1875 4.21094 24.2734 4.5 22.9766 4.77344C21.7891 5.02344 20.8828 5.46875 20.2578 6.10938C19.6406 6.75 19.2266 7.63672 19.0156 8.76953C20.1484 7.60547 21.4766 7.02344 23 7.02344ZM22.4375 9.30859C21.5156 9.30859 20.793 9.62109 20.2695 10.2461C19.7461 10.8633 19.4844 11.8164 19.4844 13.1055C19.4844 14.3242 19.7422 15.2734 20.2578 15.9531C20.7734 16.6328 21.5078 16.9727 22.4609 16.9727C23.4062 16.9727 24.1367 16.6328 24.6523 15.9531C25.1758 15.2656 25.4375 14.2344 25.4375 12.8594C25.4375 11.7656 25.1758 10.9023 24.6523 10.2695C24.1367 9.62891 23.3984 9.30859 22.4375 9.30859ZM41.0352 19H38.1875V13.8789H33.2539V19H30.4062V6.32031H33.2539V11.6055H38.1875V6.32031H41.0352V19ZM43.543 12.543C43.543 11.3008 43.7891 10.1836 44.2812 9.19141C44.7734 8.19141 45.4648 7.42578 46.3555 6.89453C47.2461 6.35547 48.2695 6.08594 49.4258 6.08594C51.1367 6.08594 52.5234 6.63672 53.5859 7.73828C54.6562 8.83984 55.2344 10.3008 55.3203 12.1211L55.332 12.7891C55.332 14.0391 55.0898 15.1562 54.6055 16.1406C54.1289 17.125 53.4414 17.8867 52.543 18.4258C51.6523 18.9648 50.6211 19.2344 49.4492 19.2344C47.6602 19.2344 46.2266 18.6406 45.1484 17.4531C44.0781 16.2578 43.543 14.668 43.543 12.6836V12.543ZM46.3906 12.7891C46.3906 14.0938 46.6602 15.1172 47.1992 15.8594C47.7383 16.5938 48.4883 16.9609 49.4492 16.9609C50.4102 16.9609 51.1562 16.5859 51.6875 15.8359C52.2266 15.0859 52.4961 13.9883 52.4961 12.543C52.4961 11.2617 52.2188 10.2461 51.6641 9.49609C51.1172 8.74609 50.3711 8.37109 49.4258 8.37109C48.4961 8.37109 47.7578 8.74219 47.2109 9.48438C46.6641 10.2188 46.3906 11.3203 46.3906 12.7891ZM57.957 19V6.32031H63.1016C64.8359 6.32031 66.1562 6.625 67.0625 7.23438C67.9688 7.83594 68.4219 8.70312 68.4219 9.83594C68.4219 10.4219 68.2383 10.9492 67.8711 11.418C67.5117 11.8789 66.9766 12.2344 66.2656 12.4844C67.0938 12.6562 67.75 13.0039 68.2344 13.5273C68.7188 14.0508 68.9609 14.668 68.9609 15.3789C68.9609 16.5586 68.5234 17.457 67.6484 18.0742C66.7812 18.6914 65.5312 19 63.8984 19H57.957ZM60.8047 13.5977V16.75H63.9219C65.3828 16.75 66.1133 16.2266 66.1133 15.1797C66.1133 14.125 65.3711 13.5977 63.8867 13.5977H60.8047ZM60.8047 11.5586H63.1484C64.7656 11.5586 65.5742 11.082 65.5742 10.1289C65.5742 9.12891 64.8086 8.61328 63.2773 8.58203H60.8047V11.5586ZM79.3438 6.32031H82.1797V19H79.3438V10.5391L74.375 19H71.5391V6.32031H74.375V14.7812L79.3438 6.32031ZM95.1875 8.58203H91.0742V19H88.2266V8.58203H84.1602V6.32031H95.1875V8.58203ZM100.156 10.3516H102.945C103.984 10.3516 104.891 10.5312 105.664 10.8906C106.438 11.25 107.023 11.7539 107.422 12.4023C107.828 13.0508 108.031 13.8047 108.031 14.6641C108.031 15.9688 107.57 17.0156 106.648 17.8047C105.727 18.5938 104.5 18.9922 102.969 19H97.3086V6.32031H100.156V10.3516ZM100.156 12.6367V16.7266H102.934C103.629 16.7266 104.176 16.5547 104.574 16.2109C104.98 15.8594 105.184 15.3633 105.184 14.7227C105.184 14.082 104.984 13.5781 104.586 13.2109C104.195 12.8359 103.664 12.6445 102.992 12.6367H100.156ZM121.496 16.9609C122.207 16.9609 122.797 16.7539 123.266 16.3398C123.734 15.9258 123.984 15.4141 124.016 14.8047H126.699C126.668 15.5938 126.422 16.332 125.961 17.0195C125.5 17.6992 124.875 18.2383 124.086 18.6367C123.297 19.0352 122.445 19.2344 121.531 19.2344C119.758 19.2344 118.352 18.6602 117.312 17.5117C116.273 16.3633 115.754 14.7773 115.754 12.7539V12.4609C115.754 10.5312 116.27 8.98828 117.301 7.83203C118.332 6.66797 119.738 6.08594 121.52 6.08594C123.027 6.08594 124.254 6.52734 125.199 7.41016C126.152 8.28516 126.652 9.4375 126.699 10.8672H124.016C123.984 10.1406 123.734 9.54297 123.266 9.07422C122.805 8.60547 122.215 8.37109 121.496 8.37109C120.574 8.37109 119.863 8.70703 119.363 9.37891C118.863 10.043 118.609 11.0547 118.602 12.4141V12.8711C118.602 14.2461 118.848 15.2734 119.34 15.9531C119.84 16.625 120.559 16.9609 121.496 16.9609ZM139.602 19H136.754V8.61719H131.809V19H128.961V6.32031H139.602V19ZM150.547 6.32031H153.383V19H150.547V10.5391L145.578 19H142.742V6.32031H145.578V14.7812L150.547 6.32031ZM161.621 16.9609C162.332 16.9609 162.922 16.7539 163.391 16.3398C163.859 15.9258 164.109 15.4141 164.141 14.8047H166.824C166.793 15.5938 166.547 16.332 166.086 17.0195C165.625 17.6992 165 18.2383 164.211 18.6367C163.422 19.0352 162.57 19.2344 161.656 19.2344C159.883 19.2344 158.477 18.6602 157.438 17.5117C156.398 16.3633 155.879 14.7773 155.879 12.7539V12.4609C155.879 10.5312 156.395 8.98828 157.426 7.83203C158.457 6.66797 159.863 6.08594 161.645 6.08594C163.152 6.08594 164.379 6.52734 165.324 7.41016C166.277 8.28516 166.777 9.4375 166.824 10.8672H164.141C164.109 10.1406 163.859 9.54297 163.391 9.07422C162.93 8.60547 162.34 8.37109 161.621 8.37109C160.699 8.37109 159.988 8.70703 159.488 9.37891C158.988 10.043 158.734 11.0547 158.727 12.4141V12.8711C158.727 14.2461 158.973 15.2734 159.465 15.9531C159.965 16.625 160.684 16.9609 161.621 16.9609ZM168.441 12.543C168.441 11.3008 168.688 10.1836 169.18 9.19141C169.672 8.19141 170.363 7.42578 171.254 6.89453C172.145 6.35547 173.168 6.08594 174.324 6.08594C176.035 6.08594 177.422 6.63672 178.484 7.73828C179.555 8.83984 180.133 10.3008 180.219 12.1211L180.23 12.7891C180.23 14.0391 179.988 15.1562 179.504 16.1406C179.027 17.125 178.34 17.8867 177.441 18.4258C176.551 18.9648 175.52 19.2344 174.348 19.2344C172.559 19.2344 171.125 18.6406 170.047 17.4531C168.977 16.2578 168.441 14.668 168.441 12.6836V12.543ZM171.289 12.7891C171.289 14.0938 171.559 15.1172 172.098 15.8594C172.637 16.5938 173.387 16.9609 174.348 16.9609C175.309 16.9609 176.055 16.5859 176.586 15.8359C177.125 15.0859 177.395 13.9883 177.395 12.543C177.395 11.2617 177.117 10.2461 176.562 9.49609C176.016 8.74609 175.27 8.37109 174.324 8.37109C173.395 8.37109 172.656 8.74219 172.109 9.48438C171.562 10.2188 171.289 11.3203 171.289 12.7891ZM187.145 13.9844H185.703V19H182.855V6.32031H185.703V11.3828H186.957L190.461 6.32031H193.977L189.395 12.3906L194.363 19H190.66L187.145 13.9844Z" fill="white"/>
</svg>
