<svg width="185" height="24" viewBox="0 0 185 24" fill="none" xmlns="http://www.w3.org/2000/svg">
<path d="M13.7539 12.4453C13.582 14.2656 12.9102 15.6875 11.7383 16.7109C10.5664 17.7266 9.00781 18.2344 7.0625 18.2344C5.70312 18.2344 4.50391 17.9141 3.46484 17.2734C2.43359 16.625 1.63672 15.707 1.07422 14.5195C0.511719 13.332 0.21875 11.9531 0.195312 10.3828V8.78906C0.195312 7.17969 0.480469 5.76172 1.05078 4.53516C1.62109 3.30859 2.4375 2.36328 3.5 1.69922C4.57031 1.03516 5.80469 0.703125 7.20312 0.703125C9.08594 0.703125 10.6016 1.21484 11.75 2.23828C12.8984 3.26172 13.5664 4.70703 13.7539 6.57422H10.8008C10.6602 5.34766 10.3008 4.46484 9.72266 3.92578C9.15234 3.37891 8.3125 3.10547 7.20312 3.10547C5.91406 3.10547 4.92188 3.57812 4.22656 4.52344C3.53906 5.46094 3.1875 6.83984 3.17188 8.66016V10.1719C3.17188 12.0156 3.5 13.4219 4.15625 14.3906C4.82031 15.3594 5.78906 15.8438 7.0625 15.8438C8.22656 15.8438 9.10156 15.582 9.6875 15.0586C10.2734 14.5352 10.6445 13.6641 10.8008 12.4453H13.7539ZM26.1172 7.58203H22.0039V18H19.1562V7.58203H15.0898V5.32031H26.1172V7.58203ZM35.4102 18C35.2852 17.7578 35.1758 17.3633 35.082 16.8164C34.1758 17.7617 33.0664 18.2344 31.7539 18.2344C30.4805 18.2344 29.4414 17.8711 28.6367 17.1445C27.832 16.418 27.4297 15.5195 27.4297 14.4492C27.4297 13.0977 27.9297 12.0625 28.9297 11.3438C29.9375 10.6172 31.375 10.2539 33.2422 10.2539H34.9883V9.42188C34.9883 8.76562 34.8047 8.24219 34.4375 7.85156C34.0703 7.45312 33.5117 7.25391 32.7617 7.25391C32.1133 7.25391 31.582 7.41797 31.168 7.74609C30.7539 8.06641 30.5469 8.47656 30.5469 8.97656H27.6992C27.6992 8.28125 27.9297 7.63281 28.3906 7.03125C28.8516 6.42188 29.4766 5.94531 30.2656 5.60156C31.0625 5.25781 31.9492 5.08594 32.9258 5.08594C34.4102 5.08594 35.5938 5.46094 36.4766 6.21094C37.3594 6.95312 37.8125 8 37.8359 9.35156V15.0703C37.8359 16.2109 37.9961 17.1211 38.3164 17.8008V18H35.4102ZM32.2812 15.9492C32.8438 15.9492 33.3711 15.8125 33.8633 15.5391C34.3633 15.2656 34.7383 14.8984 34.9883 14.4375V12.0469H33.4531C32.3984 12.0469 31.6055 12.2305 31.0742 12.5977C30.543 12.9648 30.2773 13.4844 30.2773 14.1562C30.2773 14.7031 30.457 15.1406 30.8164 15.4688C31.1836 15.7891 31.6719 15.9492 32.2812 15.9492ZM50.6094 7.58203H46.4961V18H43.6484V7.58203H39.582V5.32031H50.6094V7.58203ZM57.0898 13.9219L59.668 5.32031H62.7031L57.6641 19.9219C56.8906 22.0547 55.5781 23.1211 53.7266 23.1211C53.3125 23.1211 52.8555 23.0508 52.3555 22.9102V20.707L52.8945 20.7422C53.6133 20.7422 54.1523 20.6094 54.5117 20.3438C54.8789 20.0859 55.168 19.6484 55.3789 19.0312L55.7891 17.9414L51.3359 5.32031H54.4062L57.0898 13.9219ZM69.3945 15.9609C70.1055 15.9609 70.6953 15.7539 71.1641 15.3398C71.6328 14.9258 71.8828 14.4141 71.9141 13.8047H74.5977C74.5664 14.5938 74.3203 15.332 73.8594 16.0195C73.3984 16.6992 72.7734 17.2383 71.9844 17.6367C71.1953 18.0352 70.3438 18.2344 69.4297 18.2344C67.6562 18.2344 66.25 17.6602 65.2109 16.5117C64.1719 15.3633 63.6523 13.7773 63.6523 11.7539V11.4609C63.6523 9.53125 64.168 7.98828 65.1992 6.83203C66.2305 5.66797 67.6367 5.08594 69.418 5.08594C70.9258 5.08594 72.1523 5.52734 73.0977 6.41016C74.0508 7.28516 74.5508 8.4375 74.5977 9.86719H71.9141C71.8828 9.14062 71.6328 8.54297 71.1641 8.07422C70.7031 7.60547 70.1133 7.37109 69.3945 7.37109C68.4727 7.37109 67.7617 7.70703 67.2617 8.37891C66.7617 9.04297 66.5078 10.0547 66.5 11.4141V11.8711C66.5 13.2461 66.7461 14.2734 67.2383 14.9531C67.7383 15.625 68.457 15.9609 69.3945 15.9609ZM93.4766 18H90.6289V7.61719H85.6836V18H82.8359V5.32031H93.4766V18ZM107.609 11.7891C107.609 13.75 107.164 15.3164 106.273 16.4883C105.383 17.6523 104.188 18.2344 102.688 18.2344C101.297 18.2344 100.184 17.7773 99.3477 16.8633V22.875H96.5V5.32031H99.125L99.2422 6.60938C100.078 5.59375 101.215 5.08594 102.652 5.08594C104.199 5.08594 105.41 5.66406 106.285 6.82031C107.168 7.96875 107.609 9.56641 107.609 11.6133V11.7891ZM104.773 11.543C104.773 10.2773 104.52 9.27344 104.012 8.53125C103.512 7.78906 102.793 7.41797 101.855 7.41797C100.691 7.41797 99.8555 7.89844 99.3477 8.85938V14.4844C99.8633 15.4688 100.707 15.9609 101.879 15.9609C102.785 15.9609 103.492 15.5977 104 14.8711C104.516 14.1367 104.773 13.0273 104.773 11.543ZM109.496 11.543C109.496 10.3008 109.742 9.18359 110.234 8.19141C110.727 7.19141 111.418 6.42578 112.309 5.89453C113.199 5.35547 114.223 5.08594 115.379 5.08594C117.09 5.08594 118.477 5.63672 119.539 6.73828C120.609 7.83984 121.188 9.30078 121.273 11.1211L121.285 11.7891C121.285 13.0391 121.043 14.1562 120.559 15.1406C120.082 16.125 119.395 16.8867 118.496 17.4258C117.605 17.9648 116.574 18.2344 115.402 18.2344C113.613 18.2344 112.18 17.6406 111.102 16.4531C110.031 15.2578 109.496 13.668 109.496 11.6836V11.543ZM112.344 11.7891C112.344 13.0938 112.613 14.1172 113.152 14.8594C113.691 15.5938 114.441 15.9609 115.402 15.9609C116.363 15.9609 117.109 15.5859 117.641 14.8359C118.18 14.0859 118.449 12.9883 118.449 11.543C118.449 10.2617 118.172 9.24609 117.617 8.49609C117.07 7.74609 116.324 7.37109 115.379 7.37109C114.449 7.37109 113.711 7.74219 113.164 8.48438C112.617 9.21875 112.344 10.3203 112.344 11.7891ZM122.902 15.7266C123.691 14.8438 124.219 14.0078 124.484 13.2188C124.758 12.4219 124.922 11.4062 124.977 10.1719L125.141 5.32031H133.941V15.7266H135.699V21.7734H132.863V18H124.73V21.7734H121.848L121.859 15.7266H122.902ZM126.242 15.7266H131.105V7.76953H127.906L127.824 10.1953C127.715 12.5234 127.188 14.3672 126.242 15.7266ZM142.168 13.9219L144.746 5.32031H147.781L142.742 19.9219C141.969 22.0547 140.656 23.1211 138.805 23.1211C138.391 23.1211 137.934 23.0508 137.434 22.9102V20.707L137.973 20.7422C138.691 20.7422 139.23 20.6094 139.59 20.3438C139.957 20.0859 140.246 19.6484 140.457 19.0312L140.867 17.9414L136.414 5.32031H139.484L142.168 13.9219ZM153.934 12.9844H152.492V18H149.645V5.32031H152.492V10.3828H153.746L157.25 5.32031H160.766L156.184 11.3906L161.152 18H157.449L153.934 12.9844ZM172.695 7.58203H168.582V18H165.734V7.58203H161.668V5.32031H172.695V7.58203ZM181.988 18C181.863 17.7578 181.754 17.3633 181.66 16.8164C180.754 17.7617 179.645 18.2344 178.332 18.2344C177.059 18.2344 176.02 17.8711 175.215 17.1445C174.41 16.418 174.008 15.5195 174.008 14.4492C174.008 13.0977 174.508 12.0625 175.508 11.3438C176.516 10.6172 177.953 10.2539 179.82 10.2539H181.566V9.42188C181.566 8.76562 181.383 8.24219 181.016 7.85156C180.648 7.45312 180.09 7.25391 179.34 7.25391C178.691 7.25391 178.16 7.41797 177.746 7.74609C177.332 8.06641 177.125 8.47656 177.125 8.97656H174.277C174.277 8.28125 174.508 7.63281 174.969 7.03125C175.43 6.42188 176.055 5.94531 176.844 5.60156C177.641 5.25781 178.527 5.08594 179.504 5.08594C180.988 5.08594 182.172 5.46094 183.055 6.21094C183.938 6.95312 184.391 8 184.414 9.35156V15.0703C184.414 16.2109 184.574 17.1211 184.895 17.8008V18H181.988ZM178.859 15.9492C179.422 15.9492 179.949 15.8125 180.441 15.5391C180.941 15.2656 181.316 14.8984 181.566 14.4375V12.0469H180.031C178.977 12.0469 178.184 12.2305 177.652 12.5977C177.121 12.9648 176.855 13.4844 176.855 14.1562C176.855 14.7031 177.035 15.1406 177.395 15.4688C177.762 15.7891 178.25 15.9492 178.859 15.9492Z" fill="white"/>
</svg>
